<?xml version="1.0" standalone="no"?>
<!DOCTYPE svg PUBLIC "-//W3C//DTD SVG 1.1//EN" "http://www.w3.org/Graphics/SVG/1.1/DTD/svg11.dtd" >
<svg xmlns="http://www.w3.org/2000/svg">
<metadata>Generated by IcoMoon</metadata>
<defs>
<font id="icomoon" horiz-adv-x="1024">
<font-face units-per-em="1024" ascent="960" descent="-64" />
<missing-glyph horiz-adv-x="1024" />
<glyph unicode="&#x20;" horiz-adv-x="512" d="" />
<glyph unicode="&#xe900;" glyph-name="fs-chart-trend-down" horiz-adv-x="1211" d="M1210.561-36.36v0c0-15.202-12.432-27.64-27.64-27.64h-1140.080c-17.817 0-42.841 13.794-42.841 31.782v964.579c0 15.202 12.438 27.64 27.64 27.64v0c15.202 0 27.64-12.438 27.64-27.64v-941.087h1127.647c15.202 0 27.634-12.432 27.634-27.634zM1003.272 255.22h-63.569c-36.483 0-66.333-29.85-66.333-66.333v-69.096c0-36.483 29.85-66.333 66.333-66.333h63.569c36.483 0 66.333 29.85 66.333 66.333v69.096c0 36.488-29.85 66.333-66.333 66.333zM757.29 423.634h-63.569c-36.483 0-66.333-29.845-66.333-66.333v-240.267c0-36.483 29.85-66.333 66.333-66.333h63.569c36.483 0 66.333 29.85 66.333 66.333v240.267c0 36.483-29.85 66.333-66.333 66.333zM257.036 575.826h-63.564c-36.483 0-66.333-29.85-66.333-66.333v-392.459c0-36.483 29.85-66.333 66.333-66.333h63.569c36.483 0 66.333 29.85 66.333 66.333v392.459c-0.006 36.483-29.856 66.333-66.339 66.333zM511.308 321.582h-63.564c-36.483 0-66.333-29.85-66.333-66.333v-138.221c0-36.483 29.85-66.333 66.333-66.333h63.569c36.483 0 66.333 29.85 66.333 66.333v138.221c-0.006 36.483-29.856 66.333-66.339 66.333zM1025.385 406.768l-185.176 27.64 64.886 58.504-205.876 252.608-203.995-190.936c-12.666-16.694-37.092-26.546-54.841-10.068l-308.161 286.054c-13.652 12.666-13.167 34.711 0 47.878v0c13.167 13.167 34.232 12.666 47.884 0l282.271-262.021 220.337 206.235c18.022 16.871 43.457 3.521 54.111-16.649l218.365-267.941 53.616 48.345 16.58-179.649z" />
<glyph unicode="&#xe901;" glyph-name="fs-chart-area" horiz-adv-x="1084" d="M1074.031 645.835v-614.697h-979.277v327.839l189.355 90.438 149.788-148.375 93.264 154.028 100.33-145.549 142.723 117.287 110.222-97.504zM0.077 959.542h62.176v-962.32h1021.67v-60.763h-1083.846z" />
<glyph unicode="&#xe902;" glyph-name="fs-chart-trend-up" horiz-adv-x="1211" d="M1210.561-36.36v0c0-15.202-12.432-27.64-27.64-27.64h-1140.080c-17.817 0-42.841 13.794-42.841 31.782v964.579c0 15.202 12.438 27.64 27.64 27.64v0c15.202 0 27.64-12.438 27.64-27.64v-941.087h1127.647c15.202 0 27.634-12.432 27.634-27.634zM193.472 255.22h63.569c36.483 0 66.333-29.85 66.333-66.333v-69.096c0-36.483-29.85-66.333-66.333-66.333h-63.569c-36.483 0-66.333 29.85-66.333 66.333v69.096c0 36.488 29.845 66.333 66.333 66.333zM439.454 479.095h63.569c36.483 0 66.333-29.85 66.333-66.333v-295.729c0-36.488-29.85-66.333-66.333-66.333h-63.569c-36.483 0-66.333 29.85-66.333 66.333v295.723c0 36.488 29.845 66.339 66.333 66.339zM939.702 575.826h63.569c36.483 0 66.333-29.85 66.333-66.333v-392.459c0-36.483-29.85-66.333-66.333-66.333h-63.569c-36.483 0-66.333 29.85-66.333 66.333v392.459c0.006 36.483 29.85 66.333 66.333 66.333zM685.43 376.833h63.569c36.483 0 66.333-29.85 66.333-66.333v-193.466c0-36.483-29.85-66.333-66.333-66.333h-63.569c-36.483 0-66.333 29.85-66.333 66.333v193.466c0.006 36.483 29.85 66.333 66.333 66.333zM1025.385 888.14l-185.176-27.64 64.886-58.504-205.876-252.614-203.995 190.942c-12.666 16.694-37.092 26.546-54.841 10.068l-308.167-286.054c-13.652-12.672-13.167-34.711 0-47.878v0c13.167-13.167 34.232-12.672 47.884 0l282.276 262.021 220.337-206.235c18.022-16.871 43.457-3.521 54.111 16.649l218.365 267.941 53.616-48.345 16.58 179.649z" />
<glyph unicode="&#xe903;" glyph-name="fs-chart-distance" d="M982 618c0-46-40-84-86-84-8 0-16 0-22 2l-152-152c2-6 4-14 4-22 0-46-40-84-86-84s-86 38-86 84c0 8 2 16 4 22l-110 110c-6-2-14-4-22-4s-16 2-22 4l-194-194c2-6 4-14 4-22 0-46-40-86-86-86s-86 40-86 86 40 84 86 84c8 0 16 0 22-2l194 194c-2 6-2 14-2 22 0 46 38 86 84 86s86-40 86-86c0-8 0-16-2-22l108-108c6 2 14 2 22 2s16 0 22-2l152 150c-2 6-4 14-4 22 0 46 40 86 86 86s86-40 86-86z" />
<glyph unicode="&#xe904;" glyph-name="fs-icon-lightning" horiz-adv-x="572" d="M255.712 942.656l-229.376-514.624h192.512l-104.592-414.72 424.336 581.52h-226.368l217.904 345.136z" />
<glyph unicode="&#xe905;" glyph-name="fs-chart-areaspline" horiz-adv-x="1084" d="M88.399 22.661v349.752c97.367 134.52 180.641 75.587 248.542 10.249 115.303-111.459 126.833-147.331 408.684 66.619 102.491 78.15 147.331 244.698 303.631 179.36 6.406-5.125 12.811-10.249 17.936-16.655 0-125.552 0-462.492 0-589.325h-978.792zM0 960.457h61.495v-962.137h1022.351v-62.776h-1083.846z" />
<glyph unicode="&#xe906;" glyph-name="fs-weather-leaf-wet" horiz-adv-x="859" d="M643.601 227.918c64.402 3.838 98.057 23.28 115.363 44.882-3.314 52.559-12.917 118.022-39.904 177.433-15.472 34.022-37.428 64.821-64.363 87.459-29.45 26.987-56.66 47.764-84.079 64.874-54.118 33.59-101.594 48.223-116.621 53.371-15.183 4.913-42.432 14.149-75.42 24.419-32.869 9.445-72.682 23.096-106.664 39.773-69.668 31.939-127.428 67.965-127.324 67.965-0.131-0.013 61.625-28.69 133.363-52.494 36.197-12.93 73.179-21.446 107.699-28.14 33.983-7.323 62.66-14.777 78.459-19.887 29.542-10.336 206.542-57.799 296.949-216.918 20.45-40.638 33.275-82.677 41.581-122.057 20.45 9.655 45.878 28.376 52.808 63 12.079 60.328 5.358 241.35-190.389 341.91-195.774 100.559-414.316 80.463-518.911 109.952s-146.149 96.538-146.149 96.538 87.144-682.483 643.601-732.082zM703.326 190.805c0 0 86.254-136.049 0-136.049-86.306 0.013 0 136.049 0 136.049zM447.264 227.918c0 0 86.254-136.049 0-136.049-86.319 0 0 136.049 0 136.049zM583.339 111.468c0 0 102.957-175.468 0-175.468-103.022 0 0 175.468 0 175.468z" />
<glyph unicode="&#xe907;" glyph-name="fs-weather-level" horiz-adv-x="1415" d="M593.81 960h200.582v-324.684c-16.149-13.213-36.26-21.058-58.067-21.058-36.596 0-68.436 22.083-84.738 54.626l0.061 0.811h-24.622l0.061-0.811c-7.876-15.706-19.376-28.995-33.277-38.508v329.624zM1335.425 525.803v42.591c-5.567-1.086-11.301-1.652-17.159-1.652-36.596 0-68.436 22.083-84.738 54.611l0.061 0.811h-24.622l0.061-0.811c-16.302-32.528-48.142-54.611-84.738-54.611s-68.436 22.083-84.738 54.626l0.061 0.811h-24.622l0.061-0.811c-16.302-32.528-48.142-54.626-84.738-54.626s-68.436 22.083-84.738 54.611l0.061 0.811h-24.622l0.061-0.811c-16.302-32.528-48.142-54.611-84.738-54.611s-68.436 22.083-84.738 54.626l0.061 0.811h-24.622l0.061-0.811c-16.302-32.528-48.142-54.626-84.738-54.626s-68.436 22.083-84.738 54.611l0.061 0.811h-24.622l0.061-0.811c-16.302-32.528-48.142-54.611-84.738-54.611s-68.436 22.083-84.738 54.626l0.061 0.811h-24.622l0.061-0.811c-16.302-32.528-48.142-54.626-84.738-54.626-6.79 0-13.412 0.765-19.789 2.202v-42.713c6.423-1.116 13.030-1.713 19.789-1.713 42.117 0 78.667 22.618 96.988 55.789 18.321-33.17 54.886-55.789 96.988-55.789s78.652 22.618 96.988 55.789c18.321-33.17 54.886-55.789 96.988-55.789 18.612 0 36.122 4.42 51.461 12.219v-600.753h200.582v604.392c16.394 9.787 29.882 23.582 38.936 39.945 18.321-33.17 54.886-55.789 96.988-55.789 42.117 0 78.667 22.618 96.988 55.789 18.336-33.17 54.886-55.789 96.988-55.789s78.652 22.618 96.988 55.789c18.336-33.17 54.886-55.789 96.988-55.789 5.827 0 11.561 0.443 17.143 1.269v0zM686.194 107.541h102.921v-31.672h-102.921v31.672zM686.194 281.728h102.921v-31.672h-102.921v31.672zM686.194 453.284h102.921v-31.672h-102.921v31.672zM686.194 809.563v-31.672h102.921v31.672h-102.921zM533.112 373.745c-5.613-0.994-11.409-1.529-17.342-1.529-36.091 0-67.427 19.391-83.132 47.821-15.706-28.43-47.041-47.821-83.132-47.821s-67.427 19.391-83.132 47.821c-15.706-28.43-47.041-47.821-83.132-47.821s-67.427 19.391-83.132 47.821c-15.706-28.43-47.041-47.821-83.132-47.821-5.796 0-11.47 0.505-16.96 1.468v36.611c5.475-1.239 11.149-1.896 16.96-1.896 31.366 0 58.648 18.933 72.626 46.812l-0.046 0.688h21.104l-0.046-0.688c13.978-27.894 41.26-46.812 72.626-46.812s58.648 18.933 72.626 46.812l-0.046 0.688h21.104l-0.046-0.688c13.978-27.879 41.26-46.812 72.626-46.812s58.648 18.933 72.626 46.812l-0.046 0.703h21.104l-0.046-0.688c13.978-27.894 41.26-46.812 72.626-46.812 5.949 0 11.745 0.673 17.342 1.973 0 0 0-36.642 0-36.642zM1414.597 373.745c-5.613-0.994-11.409-1.529-17.342-1.529-36.091 0-67.427 19.391-83.132 47.821-15.706-28.43-47.041-47.821-83.132-47.821s-67.427 19.391-83.132 47.821c-15.706-28.43-47.041-47.821-83.132-47.821s-67.427 19.391-83.132 47.821c-15.706-28.43-47.041-47.821-83.132-47.821-5.796 0-11.47 0.505-16.975 1.468v36.611c5.475-1.239 11.149-1.896 16.975-1.896 31.366 0 58.664 18.933 72.626 46.812l-0.046 0.688h21.104l-0.046-0.688c13.978-27.894 41.26-46.812 72.626-46.812s58.664 18.933 72.626 46.812l-0.046 0.688h21.104l-0.046-0.688c13.978-27.879 41.26-46.812 72.641-46.812 31.366 0 58.648 18.933 72.626 46.812l-0.046 0.688h21.104l-0.046-0.688c13.978-27.894 41.26-46.812 72.641-46.812 5.949 0 11.745 0.673 17.342 1.973v-36.627h-0.031z" />
<glyph unicode="&#xe908;" glyph-name="fs-weather-preciptation" horiz-adv-x="1384" d="M873.105 231.179l-133.307-133.307v314.343c0 26.346-21.383 47.729-47.729 47.729-26.37 0-47.729-21.383-47.729-47.729v-314.343l-133.307 133.307c-18.638 18.638-48.851 18.638-67.489 0s-18.638-48.851 0-67.489l214.756-214.756c2.219-2.219 4.677-4.224 7.326-5.99 1.122-0.74 2.363-1.265 3.532-1.909 1.527-0.835 3.031-1.766 4.654-2.482 1.551-0.62 3.174-1.002 4.773-1.48 1.384-0.406 2.697-0.931 4.129-1.241 3.079-0.573 6.229-0.907 9.355-0.907s6.276 0.334 9.355 0.931c1.432 0.31 2.744 0.835 4.129 1.241 1.599 0.477 3.222 0.835 4.773 1.48 1.623 0.692 3.126 1.623 4.654 2.482 1.193 0.644 2.41 1.169 3.532 1.909 2.625 1.766 5.107 3.771 7.326 5.99l214.756 214.756c18.638 18.638 18.638 48.851 0 67.489-18.638 18.614-48.851 18.614-67.489-0.024zM1121.629 674.724c-12.123 0-26.537-1.885-40.307-4.391-49.948 171.156-206.38 290.765-389.253 290.765-182.897 0-339.329-119.609-389.277-290.765-13.746 2.506-28.184 4.391-40.283 4.391-144.738 0-262.509-117.771-262.509-262.509s117.771-262.509 262.533-262.509l47.729 0.024c26.346 0.024 47.729 21.383 47.705 47.753-0.024 26.346-21.383 47.705-47.729 47.705l-47.729-0.024c-92.093 0-167.051 74.958-167.051 167.051s74.958 167.051 167.051 167.051c6.61 0 17.278-1.623 28.494-3.866v-43.863c0-26.346 21.359-47.729 47.729-47.729s47.729 21.383 47.729 47.729v76.939c25.654 149.177 153.616 257.163 305.608 257.163 152.064 0 280.073-108.106 305.656-257.426v-76.677c0-26.346 21.383-47.729 47.729-47.729s47.729 21.383 47.729 47.729v43.863c11.192 2.243 21.836 3.866 28.446 3.866 92.093 0 167.051-74.958 167.051-167.051s-74.958-167.051-167.027-167.051l-47.753 0.024c-26.37 0-47.705-21.359-47.729-47.705s21.335-47.729 47.705-47.753l47.753-0.024c144.738 0 262.509 117.771 262.509 262.509s-117.771 262.509-262.509 262.509z" />
<glyph unicode="&#xe909;" glyph-name="fs-chart-bar" horiz-adv-x="1084" d="M0 955.332h69.182v-968.542h1014.663v-46.121h-1083.845zM115.303 217.395h185.393v-185.393h-185.393v185.393zM345.908 378.818h185.393v-333.707h-185.393v333.707zM576.513 217.395h185.393v-173.043h-185.393v173.043zM807.118 770.847h185.393v-729.22h-185.393v729.22z" />
<glyph unicode="&#xe90a;" glyph-name="fs-weather-pressure" horiz-adv-x="904" d="M451.913 960c249.608 0 451.94-202.332 451.94-451.94 0-198.537-128.028-367.167-306.039-427.844v-102.685c0-22.862-18.682-41.544-41.544-41.544h-218.188c-22.862 0-41.557 18.695-41.557 41.544v106.029c-173.035 63.371-296.525 229.506-296.525 424.501 0 249.608 202.332 451.94 451.913 451.94v0zM451.913 820.189c-172.372 0-312.103-139.744-312.103-312.129 0-172.372 139.744-312.103 312.103-312.103 172.385 0 312.129 139.744 312.129 312.103 0 172.385-139.744 312.129-312.129 312.129zM445.889 589.94c5.414 0 10.721-0.491 15.869-1.433l134.065 101.411c35.321 26.723 81.814 1.632 42.964-42.95l-107.648-123.437c1.725-6.873 2.654-14.065 2.654-21.482 0-48.55-39.355-87.904-87.904-87.904s-87.904 39.355-87.904 87.904c0 48.536 39.355 87.891 87.904 87.891z" />
<glyph unicode="&#xe90b;" glyph-name="fs-weather-temperature" horiz-adv-x="456" d="M229.383 960v0c36.772 0 70.719-14.145 96.178-39.604s39.604-59.406 39.604-96.178v-478.057c25.459-19.802 48.085-45.261 65.063-76.376 16.97-31.115 25.459-67.887 25.459-107.491 0-62.23-25.459-118.804-65.063-161.24v0c-42.428-39.604-99.002-65.063-161.24-65.063-65.063 0-121.636 25.459-161.24 65.063v0 0c-42.428 42.428-67.887 99.002-67.887 161.24 0 39.604 8.489 76.376 25.459 107.491v0c16.97 31.115 39.604 56.574 65.063 76.376v478.057c0 36.772 16.97 70.719 42.428 96.178 22.626 25.459 56.574 39.604 96.178 39.604zM229.383 920.396v0c-28.291 0-50.917-11.313-70.719-28.291-16.97-16.97-28.291-42.428-28.291-67.887v-497.859l-8.489-5.657c-25.459-19.802-45.261-42.428-59.406-67.887v-2.832c-14.145-25.459-22.626-53.749-22.626-87.689 0-50.917 19.802-99.002 53.749-132.95v0c36.772-33.947 82.032-56.574 135.782-56.574 50.917 0 99.002 22.626 132.95 56.574v0c33.947 33.947 53.749 82.032 53.749 132.95 0 33.947-5.657 62.23-19.802 87.689-14.145 28.291-36.772 50.917-62.23 70.719l-8.489 5.657v497.859c0 25.459-11.313 50.917-28.291 67.887s-42.428 28.291-67.887 28.291zM260.498 264.129c48.085-14.145 84.865-59.406 84.865-113.147 0-62.23-53.749-115.98-115.98-115.98-65.063 0-118.804 53.749-118.804 115.98 0 53.749 33.947 96.178 82.032 113.147v285.701c0 19.802 14.145 33.947 33.947 33.947v0c16.97 0 33.947-14.145 33.947-33.947v-285.701zM268.979 74.606c-11.313-8.489-25.459-11.313-39.604-11.313-48.085 0-87.689 39.604-87.689 84.865 0 22.626 8.489 42.428 19.802 56.574-2.832-11.313-5.657-22.626-5.657-33.947 0-53.749 42.428-99.002 96.178-99.002 5.657-0.008 11.313-0.008 16.97 2.824z" />
<glyph unicode="&#xe90c;" glyph-name="fs-weather-humidity" horiz-adv-x="634" d="M305.055 815.805c170.953-300.746-23.333-479.663-112.948-553.087-100.199-138.641 10.569-317.050 156.304-326.226 145.719-9.242 288.325 113.587 285.9 285.064-1.786 128.498-125.729 396.849-329.257 594.249zM336.942-0.046v57.039c94.219 0 170.921 90.466 170.921 201.726h56.515c0-142.688-102.002-258.765-227.435-258.765zM56.892 960c131.136-184.308 15.452-313.002-38.523-366.436-56.662-96.545 27.25-205.233 123.189-201.824 95.955 3.408 181.424 92.416 168.856 203.627-9.389 83.273-107.655 249.589-253.522 364.634zM130.005 432.212l-3.67 37.032c61.693 6.063 106.066 69.804 98.938 142l37.016 3.687c9.127-92.662-50.223-174.64-132.283-182.718z" />
<glyph unicode="&#xe90d;" glyph-name="fs-weather-solar-radiation" horiz-adv-x="964" d="M711.743 774.392c-4.217-8.418-8.418-21.053-4.217-33.689 4.217-12.635 12.635-21.053 21.053-25.271l109.5-63.176c21.053-12.635 46.324-4.217 58.959 12.635 12.635 25.271 4.217 50.541-16.853 63.176l-109.5 63.176c-8.418 8.418-21.053 8.418-33.689 4.217-8.402-4.217-21.037-8.434-25.254-21.070zM720.177 770.175c4.217 8.418 12.635 12.635 21.053 16.853 8.418 0 16.853 0 25.271-4.217l109.5-63.176c16.853-8.418 21.053-29.488 12.635-46.324-8.418-16.853-29.488-21.053-46.324-12.635l-109.5 63.176c-8.418 4.217-12.635 12.635-16.853 21.053 0 8.434 0 16.853 4.217 25.271zM715.96 774.392c12.635 16.853 33.689 25.271 54.742 12.635l105.283-63.176c21.053-12.635 29.488-33.689 16.853-54.742v0c-12.635-16.853-33.689-25.271-54.742-12.635l-105.283 63.176c-21.070 8.418-29.488 33.689-16.853 54.742v0zM711.743 774.392c-4.217-8.418-8.418-21.053-4.217-33.689 4.217-12.635 12.635-21.053 21.053-25.271l109.5-63.176c21.053-12.635 46.324-4.217 58.959 12.635 12.635 25.271 4.217 50.541-16.853 63.176l-109.5 63.176c-8.418 8.418-21.053 8.418-33.689 4.217-8.402-4.217-21.037-8.434-25.254-21.070zM720.177 770.175c4.217 8.418 12.635 12.635 21.053 16.853s16.853 0 25.271-4.217l109.5-63.176c16.853-8.418 21.053-29.488 12.635-46.324-8.418-16.853-29.488-21.053-46.324-12.635l-109.5 63.176c-8.418 4.217-12.635 12.635-16.853 21.053 0 8.434 0 16.853 4.217 25.271zM614.878 677.527c-12.635-4.217-16.853-16.853-21.053-29.488-4.217-8.418-4.217-21.053 4.217-29.488l63.176-109.5c4.217-12.635 16.853-21.053 29.488-21.053 8.418-4.217 21.053 0 29.488 4.217v0c21.053 12.635 29.488 37.906 16.853 58.959 0 4.217-63.176 109.5-63.176 109.5-12.668 21.070-37.922 29.488-58.992 16.853zM619.095 669.109c16.853 8.418 37.906 4.217 46.324-12.635l63.176-109.5c8.418-16.853 4.217-37.906-12.635-46.324v0 0c-8.418-4.217-16.853-8.418-25.271-4.217-8.418 0-16.853 8.418-21.053 16.853l-63.176 109.5c-4.217 8.418-4.217 16.853-4.217 25.271 4.217 8.418 8.434 16.836 16.853 21.053zM614.878 673.31c21.053 12.635 46.324 4.217 54.742-12.635l63.176-109.5c12.635-21.053 4.217-42.123-12.635-54.742v0c-21.053-12.635-46.324-4.217-54.742 12.635l-63.176 109.5c-12.635 16.836-4.201 46.324 12.635 54.742v0zM614.878 677.527c-8.418-4.217-16.853-16.853-21.053-29.488-4.217-8.418 0-21.053 4.217-29.488l63.176-109.5c4.217-12.635 16.853-21.053 29.488-21.053 8.418-4.217 21.053 0 29.488 4.217v0c21.053 12.635 29.488 37.906 16.853 58.959l-63.176 109.5c-12.668 21.070-37.922 29.488-58.992 16.853zM619.095 669.109c16.853 8.418 37.906 4.217 46.324-12.635l63.176-109.5c8.418-16.853 4.217-37.906-12.635-46.324v0 0c-8.418-4.217-16.853-8.418-25.271-4.217-8.418 0-16.853 8.418-21.053 16.853l-63.176 109.5c-4.217 8.418-8.418 16.853-4.217 25.271 4.217 8.418 8.434 16.836 16.853 21.053zM480.107 643.838c-12.635 0-21.053-4.217-29.488-12.635-8.418-8.418-12.635-21.053-12.635-33.689v-126.353c0-25.271 21.053-42.123 42.123-42.123 25.271 0 46.324 16.853 46.324 42.123v126.353c0.016 25.254-21.053 46.324-46.324 46.324zM480.107 631.203c21.053 0 33.689-12.635 33.689-33.689v-126.353c0-16.853-12.635-33.689-33.689-33.689-16.853 0-33.689 16.853-33.689 33.689v126.353c0 8.418 4.217 16.853 12.635 25.271 4.217 4.201 12.635 8.418 21.053 8.418zM480.107 635.404c21.053 0 37.906-16.853 37.906-37.906v-126.353c0-21.053-16.853-37.906-37.906-37.906v0c-21.053 0-37.906 16.853-37.906 37.906v126.353c0.016 21.070 16.853 37.906 37.906 37.906v0zM480.107 639.621c-12.635 0-21.053-4.217-29.488-12.635-8.418-4.217-12.635-16.853-12.635-29.488v-126.353c0-25.271 21.053-42.123 42.123-42.123 25.271 0 46.324 16.853 46.324 42.123v126.353c0.016 25.271-21.053 42.123-46.324 42.123zM480.107 631.203c21.053 0 33.689-12.635 33.689-33.689v-126.353c0-16.853-12.635-33.689-33.689-33.689-16.853 0-33.689 16.853-33.689 33.689v126.353c0 8.418 4.217 16.853 8.418 25.271 8.434 4.201 16.853 8.418 25.271 8.418zM349.554 677.527c-12.635 8.418-25.271 8.418-37.906 4.217-8.418-4.217-16.853-8.418-25.271-21.053l-63.176-105.283c-8.418-25.271-4.217-50.541 16.853-63.176 8.418-8.418 21.053-8.418 33.689-4.217 12.635 0 21.053 8.418 29.488 21.053l63.176 109.5c4.217 8.418 4.217 21.053 4.217 29.488-4.217 12.619-12.652 25.254-21.070 29.471zM341.136 669.109c8.418-4.217 16.853-12.635 16.853-21.053 4.217-8.418 4.217-16.853 0-25.271l-63.176-109.5c-4.217-8.418-12.635-16.853-21.053-16.853-12.635-4.217-21.053 0-29.488 4.217-16.853 8.418-21.053 29.488-12.635 46.324l63.176 109.5c4.217 8.418 12.635 12.635 21.053 16.853 8.418-0.016 16.853-0.016 25.271-4.217zM345.353 673.31c21.053-8.418 25.271-37.906 16.853-54.742l-63.176-109.5c-12.635-16.853-37.906-25.271-58.959-12.635v0c-16.853 12.635-21.053 33.689-12.635 54.742l63.176 109.5c12.619 16.853 33.672 25.271 54.742 12.635v0zM349.554 677.527c-12.635 4.217-25.271 8.418-33.689 4.217-12.635-4.217-21.053-12.635-29.488-21.053l-63.176-109.5c-8.418-21.053-4.217-46.324 16.853-58.959 8.418-4.217 21.053-8.418 33.689-4.217 12.635 0 21.053 8.418 29.488 21.053l63.176 109.5c4.217 8.418 4.217 21.053 4.217 29.488-4.217 12.619-12.652 25.254-21.070 29.471zM345.353 669.109c4.217-4.217 12.635-12.635 12.635-21.053 4.217-8.418 4.217-16.853 0-25.271l-63.176-109.5c-4.217-8.418-12.635-16.853-21.053-16.853-12.635-4.217-21.053 0-29.488 4.217-16.853 8.418-21.053 29.488-12.635 46.324l63.176 109.5c4.217 8.418 12.635 12.635 21.053 16.853 8.418 4.201 21.053-0.016 29.488-4.217zM252.689 774.392c-8.418 12.635-16.853 16.853-29.488 21.053-8.418 4.217-21.053 4.217-33.689-4.217l-109.5-63.176c-21.053-12.635-25.271-37.906-12.635-63.176 12.635-16.853 37.906-25.271 58.959-12.635l109.5 63.176c8.418 4.217 16.853 12.635 21.053 25.271 0.016 12.652 0.016 25.287-4.201 33.705zM240.054 770.175c8.418-8.418 8.418-16.853 4.217-25.271 0-8.418-8.418-16.853-16.853-21.053l-105.283-63.176c-16.853-8.418-37.906-4.217-46.324 12.635-12.635 16.853-4.217 37.906 8.418 46.324l109.5 63.176c8.418 4.217 21.053 4.217 29.488 4.217 8.418-4.217 12.635-8.418 16.836-16.853zM248.488 774.392c8.418-21.053 4.217-46.324-16.853-54.742l-109.5-63.176c-16.853-12.635-42.123-4.217-50.541 12.635v0c-12.635 21.053-4.217 42.123 12.635 54.742l109.5 63.176c16.853 12.635 42.123 4.217 54.758-12.635v0zM248.488 774.392c-4.217 12.635-12.635 16.853-25.271 21.053-8.418 4.217-21.053 4.217-33.689-4.217l-109.5-63.176c-21.053-12.635-25.271-37.906-12.635-58.959s37.906-29.488 58.959-16.853l105.283 63.176c12.635 4.217 21.053 12.635 21.053 25.271 4.217 12.652 4.217 25.287-4.201 33.705zM244.271 770.175c4.217-8.418 4.217-16.853 0-25.271 0-8.418-8.418-16.853-16.853-21.053l-105.283-63.176c-16.853-8.418-37.906-4.217-50.541 12.635-8.418 16.853-4.217 37.906 12.635 46.324l109.5 63.176c8.418 4.217 21.053 8.418 29.488 4.217s12.635-8.418 21.053-16.853zM214.783 909.162c0 25.271-21.053 42.123-42.123 42.123h-130.537c-21.070-0.016-42.123-16.853-42.123-42.123 0-12.635 4.217-25.271 12.635-33.689s21.053-12.635 29.488-12.635h130.553c8.418 0 21.053 4.217 29.488 12.635s12.619 21.053 12.619 33.689zM206.365 909.162c0-8.418-4.217-21.053-12.635-25.271-4.217-8.418-12.635-12.635-21.053-12.635h-130.553c-8.418 0-16.853 4.217-21.053 12.635-8.434 4.217-12.652 16.836-12.652 25.271 0 16.853 16.853 33.689 33.689 33.689h130.553c16.853 0 33.705-16.853 33.705-33.689zM210.582 909.162c0-21.053-16.853-42.123-37.906-42.123h-130.553c-21.053 0-37.906 21.053-37.906 42.123v0c0 21.053 16.853 37.906 37.906 37.906h130.553c21.053 0 37.906-16.853 37.906-37.906v0zM214.783 909.162c0 21.053-21.053 42.123-42.123 42.123h-130.537c-21.070-0.016-42.123-21.070-42.123-42.123 0-12.635 4.217-25.271 12.635-33.689s21.053-12.635 29.488-12.635h130.553c8.418 0 21.053 4.217 29.488 12.635s12.619 21.053 12.619 33.689zM206.365 909.162c0-8.418-4.217-21.053-12.635-25.271-4.217-8.418-12.635-12.635-21.053-12.635h-130.553c-8.418 0-16.853 4.217-21.053 12.635-8.434 4.217-12.652 16.836-12.652 25.271 0 16.853 16.853 33.689 33.689 33.689h130.553c16.853 0 33.705-16.853 33.705-33.689zM749.648 909.162c0-12.635 4.217-25.271 12.635-33.689s16.853-12.635 29.488-12.635h126.353c21.053 0 46.324 21.053 46.324 46.324 0 21.053-21.053 42.123-46.324 42.123h-126.353c-25.271-0.016-42.123-16.853-42.123-42.123zM758.083 909.162c0 16.853 16.853 33.689 33.689 33.689h126.353c16.853 0 33.689-16.853 33.689-33.689 0-21.053-16.853-37.906-33.689-37.906h-126.353c-8.418 0-16.853 4.217-25.271 12.635-4.217 4.217-8.418 16.836-8.418 25.271zM753.866 909.162c0 21.053 16.853 37.906 37.906 37.906h126.353c21.053 0 37.906-16.853 37.906-37.906v0c0-21.053-16.853-42.123-37.906-42.123h-126.353c-21.070 0-37.906 21.070-37.906 42.123v0zM749.648 909.162c0-12.635 4.217-25.271 12.635-33.689s16.853-12.635 29.488-12.635h126.353c21.053 0 42.123 21.053 42.123 46.324 0 21.053-21.053 42.123-42.123 42.123h-126.353c-25.271-0.016-42.123-21.070-42.123-42.123zM758.083 909.162c0 16.853 12.635 33.689 33.689 33.689h126.353c16.853 0 33.689-16.853 33.689-33.689 0-21.053-16.853-37.906-33.689-37.906h-126.353c-8.418 0-16.853 4.217-25.271 12.635-4.217 4.217-8.418 16.836-8.418 25.271zM707.542 909.162c0-126.353-101.082-223.218-223.218-223.218s-223.218 96.865-223.218 223.218c0 16.853 0 33.689 4.217 50.541h438.001c0-16.853 4.217-33.705 4.217-50.541zM315.865 382.715v-84.23h-46.324l88.447-88.447 88.447 88.447h-46.324v84.23h-84.246zM564.337 382.715v-84.23h-42.123l88.447-88.447 84.23 88.447h-42.123v84.23h-88.43zM260.839 27.511v99.385c0 8.467 2.218 14.81 6.636 19.044s10.231 6.342 17.44 6.342c7.534 0 13.501-2.109 17.937-6.342 4.417-4.234 6.636-10.593 6.636-19.044v-101.659c0-11.548 1.492-21.218 4.494-28.977s8.318-13.772 15.967-18.055c7.63-4.283 18.339-6.408 32.069-6.408 18.989 0 32.413 4.349 40.272 13.031 7.859 8.698 11.78 21.877 11.78 39.553v102.499c0 8.566 2.18 14.925 6.54 19.109s10.192 6.276 17.516 6.276c7.305 0 13.233-2.092 17.765-6.276 4.513-4.184 6.789-10.56 6.789-19.109v-99.385c0-16.177-1.817-29.669-5.488-40.476-3.652-10.807-10.556-20.295-20.71-28.483-8.72-6.968-18.874-12.026-30.443-15.238-11.569-3.179-25.089-4.794-40.598-4.794-18.453 0-34.325 1.713-47.635 5.156s-24.171 8.731-32.566 15.93c-8.414 7.199-14.572 16.408-18.492 27.643s-5.909 24.677-5.909 40.278zM550.701 124.804l54.347-138.593 54.481 139.581c2.849 7.331 4.972 12.438 6.387 15.304s3.767 5.453 7.037 7.759c3.27 2.306 7.745 3.459 13.424 3.459 4.15 0 7.993-0.906 11.531-2.669 3.557-1.796 6.33-4.168 8.357-7.133 2.008-2.965 3.021-5.947 3.021-8.962 0-2.059-0.325-4.3-0.975-6.688-0.65-2.405-1.472-4.744-2.448-7.051s-1.97-4.679-2.964-7.133l-58.095-135.067c-2.084-5.173-4.15-10.082-6.234-14.744s-4.475-8.731-7.19-12.273c-2.735-3.525-6.368-6.408-10.9-8.665s-10.078-3.377-16.618-3.377c-6.54 0-12.086 1.104-16.599 3.311-4.532 2.207-8.185 5.123-10.976 8.731-2.792 3.624-5.221 7.743-7.286 12.339-2.084 4.613-4.15 9.489-6.215 14.678l-57.12 133.947c-0.975 2.438-1.989 4.843-3.021 7.199-1.052 2.356-1.912 4.893-2.62 7.611-0.708 2.735-1.071 5.041-1.071 6.919 0 4.794 2.237 9.176 6.712 13.113s10.078 5.914 16.866 5.914c8.28 0 14.151-2.191 17.593-6.54 3.442-4.398 6.98-11.383 10.575-20.971z" />
<glyph unicode="&#xe90e;" glyph-name="fs-weather-wind" horiz-adv-x="1331" d="M819.226 499.2l-768.026 0.026c-28.262 0-51.2-22.938-51.2-51.2s22.938-51.2 51.2-51.2l768.026-0.026c98.79 0 179.2-80.41 179.2-179.2s-80.41-179.2-179.2-179.2c-28.288 0-51.2-22.938-51.2-51.2s22.912-51.2 51.2-51.2c155.264 0 281.6 126.336 281.6 281.6s-126.336 281.6-281.6 281.6zM665.6 345.6h-614.374c-28.262 0-51.2-22.938-51.2-51.2s22.938-51.2 51.2-51.2h614.374c14.131 0 25.6-11.469 25.6-25.6s-11.469-25.6-25.6-25.6c-28.288 0-51.2-22.938-51.2-51.2s22.912-51.2 51.2-51.2c70.579 0 128 57.421 128 128s-57.421 128-128 128zM1203.226 704c-28.262 0-51.2-22.938-51.2-51.2s22.938-51.2 51.2-51.2c14.131 0 25.6-11.469 25.6-25.6s-11.469-25.6-25.6-25.6h-102.4c-28.288 0-51.2-22.938-51.2-51.2s22.912-51.2 51.2-51.2h102.4c70.579 0 128 57.421 128 128s-57.421 128-128 128zM51.2 550.426l844.826-0.026c112.922 0 204.8 91.878 204.8 204.8s-91.878 204.8-204.8 204.8-204.8-91.878-204.8-204.8c0-28.262 22.912-51.2 51.2-51.2 28.262 0 51.2 22.938 51.2 51.2 0 56.474 45.926 102.4 102.4 102.4s102.4-45.926 102.4-102.4-45.926-102.4-102.4-102.4l-844.826 0.026c-28.262 0-51.2-22.938-51.2-51.2s22.938-51.2 51.2-51.2z" />
<glyph unicode="&#xe90f;" glyph-name="fs-weather-wind-direction" horiz-adv-x="988" d="M926.775-63.065h61.032v949.675h-61.032zM19.075 390.794l549.197 549.197-7.633-3.808c11.441 0 30.516 0 57.206-7.633 118.238-19.075 339.447-68.647 339.447-68.647l-7.633 15.249-114.412-327.988-19.075-49.573 7.633 7.633-633.111-347.080h3.808c-3.808 3.808-133.487 26.69-171.619 240.283l-3.808-7.633zM556.83 959.065l-556.83-556.83v-7.633c45.765-232.65 186.885-255.533 194.501-255.533h3.808l633.111 347.063h3.808l3.808 3.808 15.249 49.573 118.238 327.988 3.808 11.441-11.441 3.808c-3.808 0-225.017 49.573-343.255 68.647-30.516 3.808-49.573 7.633-61.014 7.633h-3.791zM553.022 932.375c0 0-19.075-244.091 259.341-442.418l-129.679-76.281c0 0-236.458 144.928-255.533 404.269l125.871 114.43zM819.996 505.206v0c0 3.808 41.957 247.899-270.782 427.151l11.441 19.075c324.18-186.885 278.415-446.226 278.415-450.034l-19.075 3.808zM308.931 699.725c0 0-15.249-228.842 221.209-366.137l-125.854-76.281c0 0-190.693 122.046-198.326 343.255l102.971 95.355v3.808zM106.796 482.324c0 0 72.473-251.725 190.693-270.782l-110.604-68.647c0 0-152.561 61.014-175.444 266.974l95.355 72.455z" />
<glyph unicode="&#xe910;" glyph-name="fs-icon-dashboard" horiz-adv-x="1275" d="M1022.956 958.773h210.059c23.205 0 42.012-19.197 42.012-42.873v-937.028c0-23.676-18.807-42.873-42.012-42.873h-210.059c-23.205 0-42.012 19.197-42.012 42.873v937.028c0 23.683 18.807 42.873 42.012 42.873zM29.652 322.705h316.667c15.898 0 28.792-13.157 28.792-29.381v-327.951c0-16.225-12.886-29.381-28.792-29.381h-316.667c-15.898 0-28.792 13.157-28.792 29.381v327.951c0.008 16.225 12.894 29.381 28.792 29.381zM29.652 958.773h815.343c15.898 0 28.792-13.157 28.792-29.381v-453.445c0-16.225-12.886-29.381-28.792-29.381h-815.343c-15.898 0-28.792 13.157-28.792 29.381v453.453c0.008 16.225 12.894 29.373 28.792 29.373zM528.328 322.705h316.667c15.898 0 28.792-13.157 28.792-29.381v-327.951c0-16.225-12.886-29.381-28.792-29.381h-316.667c-15.898 0-28.792 13.157-28.792 29.381v327.951c0 16.225 12.894 29.381 28.792 29.381z" />
<glyph unicode="&#xe911;" glyph-name="fs-icon-dashboard2" horiz-adv-x="1025" d="M22.428 959.528h246.707c12.387 0 22.428-10.041 22.428-22.428v-246.707c0-12.387-10.041-22.428-22.428-22.428h-246.707c-12.387 0-22.428 10.041-22.428 22.428v246.707c0 12.387 10.041 22.428 22.428 22.428zM388.175 959.528h246.707c12.387 0 22.428-22.4 22.428-50.031v-557.246c0-27.632-10.041-50.031-22.428-50.031h-246.707c-12.387 0-22.428 22.4-22.428 50.031v557.246c0 27.632 10.041 50.031 22.428 50.031zM753.921 959.528h246.707c12.387 0 22.428-35.531 22.428-79.36v-864.336c0-43.829-10.041-79.36-22.428-79.36h-246.707c-12.387 0-22.428 35.531-22.428 79.36v864.336c0 43.829 10.041 79.36 22.428 79.36zM22.428 593.781h246.707c12.387 0 22.428-10.041 22.428-22.428v-246.707c0-12.387-10.041-22.428-22.428-22.428h-246.707c-12.387 0-22.428 10.041-22.428 22.428v246.707c0 12.387 10.041 22.428 22.428 22.428zM50.031 228.034h558.972c27.632 0 50.031-10.041 50.031-22.428v-246.707c0-12.387-22.4-22.428-50.031-22.428h-558.972c-27.632 0-50.031 10.041-50.031 22.428v246.707c0 12.387 22.4 22.428 50.031 22.428z" />
<glyph unicode="&#xe913;" glyph-name="fs-chart-line" horiz-adv-x="1084" d="M0 959.541h62.176v-962.32h1021.67v-60.763h-1083.846zM161.093 597.788c-5.652 8.479-4.239 19.783 4.239 25.436s19.783 4.239 25.436-4.239l224.683-316.534 243.053 186.529c5.652 4.239 14.131 4.239 19.783 0v0l285.446-176.637c8.479-5.652 11.305-16.957 5.652-25.436-4.239-8.479-15.544-11.305-24.023-5.652l-275.554 170.985-247.292-189.355c-8.479-7.065-19.783-4.239-25.436 4.239l-235.987 330.665z" />
<glyph unicode="&#xe917;" glyph-name="fs-chart-point" horiz-adv-x="1084" d="M212.057 283.067c0-26.026-21.098-47.124-47.124-47.124s-47.124 21.098-47.124 47.124c0 26.026 21.098 47.124 47.124 47.124s47.124-21.098 47.124-47.124zM376.989 424.438c0-26.026-21.098-47.124-47.124-47.124s-47.124 21.098-47.124 47.124c0 26.026 21.098 47.124 47.124 47.124s47.124-21.098 47.124-47.124zM541.922 377.314c0-26.026-21.098-47.124-47.124-47.124s-47.124 21.098-47.124 47.124c0 26.026 21.098 47.124 47.124 47.124s47.124-21.098 47.124-47.124zM706.855 518.686c0-26.026-21.098-47.124-47.124-47.124s-47.124 21.098-47.124 47.124c0 26.026 21.098 47.124 47.124 47.124s47.124-21.098 47.124-47.124zM895.35 612.933c0-26.026-21.098-47.124-47.124-47.124s-47.124 21.098-47.124 47.124c0 26.026 21.098 47.124 47.124 47.124s47.124-21.098 47.124-47.124zM1060.283 495.124c0-26.026-21.098-47.124-47.124-47.124s-47.124 21.098-47.124 47.124c0 26.026 21.098 47.124 47.124 47.124s47.124-21.098 47.124-47.124zM0 966.36h70.686v-966.035h1013.159v-70.686h-1083.845z" />
<glyph unicode="&#xe925;" glyph-name="fs-chart-spline" horiz-adv-x="1084" d="M0 959.709h61.714v-961.704h1022.132v-61.714h-1083.846zM173.57 198.574c-2.571-10.286-14.143-15.428-23.143-11.571s-14.143 14.143-11.571 23.143c110.57 311.14 205.712 383.139 293.14 352.282 66.856-24.428 123.427-106.713 179.998-188.998 51.428-77.142 102.856-151.713 152.998-164.57 70.714-19.286 149.141 86.142 251.997 482.138 2.571 9 12.857 15.428 21.857 12.857 10.286-2.571 15.428-12.857 12.857-21.857-109.285-424.281-204.426-532.28-295.711-509.138-62.999 16.714-118.284 97.713-174.855 179.998-52.714 77.142-105.427 155.57-160.713 174.855-68.142 24.428-146.57-45-246.855-329.139z" />
<glyph unicode="&#xe929;" glyph-name="fs-weather-common" d="M862.52 254.819c0-85.467-69.285-154.752-154.752-154.752s-154.752 69.285-154.752 154.752c0 85.467 69.285 154.752 154.752 154.752s154.752-69.285 154.752-154.752zM862.52 641.181c0-85.467-69.285-154.752-154.752-154.752s-154.752 69.285-154.752 154.752c0 85.467 69.285 154.752 154.752 154.752s154.752-69.285 154.752-154.752zM470.983 254.819c0-85.467-69.285-154.752-154.752-154.752s-154.752 69.285-154.752 154.752c0 85.467 69.285 154.752 154.752 154.752s154.752-69.285 154.752-154.752zM470.983 641.181c0-85.467-69.285-154.752-154.752-154.752s-154.752 69.285-154.752 154.752c0 85.467 69.285 154.752 154.752 154.752s154.752-69.285 154.752-154.752z" />
<glyph unicode="&#xe92a;" glyph-name="fs-weather-hydro" horiz-adv-x="1040" d="M541.116 945.973c-2.675 16.722-16.053 20.735-20.735-0.669-52.841-262.866-262.197-434.096-256.846-615.36 0-145.814 118.39-264.204 263.535-264.204 145.814 0 264.204 118.39 264.204 264.204 8.026 181.264-208.018 355.839-250.157 616.029zM490.95 588.797c-28.093-108.357-40.801-217.383-49.496-326.408-2.007-30.768-33.443-50.834-63.543-44.814v0c-30.768 0-44.145 57.523-42.808 88.291 3.344 91.635 38.794 189.29 111.701 294.303 36.119 52.841 64.211 67.556 44.145-11.371zM1006.649 81.125c22.073-12.040 33.443-24.748 33.443-38.126 0-58.861-232.767-107.019-519.712-107.019-287.614 0-520.381 48.159-520.381 107.019 0 14.715 13.377 28.093 38.794 40.801 20.066 9.364 24.748-3.344 18.728-10.702-2.007-3.344-3.344-7.358-3.344-10.702 0-49.496 207.35-90.297 463.527-90.297 255.508 0 462.858 40.801 462.858 90.297 0 2.007-0.669 4.013-1.338 6.020-7.358 13.377-8.026 28.093 27.424 12.709zM883.577 102.529c16.053-8.695 24.748-18.059 24.748-27.424 0-43.477-170.562-78.927-381.256-78.927-210.025 0-380.587 35.45-380.587 78.927 0 10.033 10.033 20.066 28.093 29.43 15.384 7.358 18.728-2.007 14.046-8.026-1.338-2.675-2.007-4.682-2.007-7.358 0-36.788 151.833-66.218 339.117-66.218s339.117 29.43 339.117 66.218c0 1.338-0.669 2.675-1.338 4.013-5.351 10.033-5.351 20.735 20.066 9.364z" />
<glyph unicode="&#xe92b;" glyph-name="fs-weather-station" d="M110.12 344.514l351.631 37.898v-391.039h-351.631v353.141zM302.607 148.989v-78.805h78.805v78.805h-78.805zM185.898 148.989v-78.805h78.805v78.805h-78.805zM185.898 264.179v-78.805h78.805v78.805h-78.805zM302.607 264.179v-78.805h78.805v78.805h-78.805zM886.144 188.397c-128.828 39.413-257.673 78.805-386.501 118.219v-315.261h386.501v197.042zM576.937 148.989h78.805v-78.805h-78.805v78.805zM693.646 148.989h78.805v-78.805h-78.805v78.805zM844.603 840.215c60.864 0 110.202-49.344 110.202-110.202s-49.344-110.202-110.202-110.202v0h-237.519c2.161 9.296 3.287 18.966 3.287 28.91 0 35.148-14.287 67.008-37.371 90.11l0.029 0.029c-23.074 23.074-54.945 37.343-90.144 37.343h-0.153c12.199 23.43 36.2 39.737 64.123 41.015 17.959 50.917 66.482 87.394 123.546 87.394 53.712 0 99.87-32.336 120.069-78.624 16.001 9.064 34.452 14.224 54.131 14.224v0zM482.889 758.935c60.864 0 110.202-49.344 110.202-110.202s-49.344-110.202-110.202-110.202v0l-356.893 0.029c-0.571-0.017-1.126-0.029-1.697-0.029-30.44 0-55.104 24.663-55.104 55.104 0 26.7 18.994 48.953 44.201 54.023-0.634 3.938-0.956 7.983-0.956 12.091 0 40.942 32.228 74.345 72.706 76.214 17.959 50.917 66.482 87.394 123.546 87.394 53.712 0 99.87-32.353 120.069-78.624 15.984 9.036 34.452 14.207 54.131 14.207zM613.771 423.863h52.416v-185.12c0-6.671-5.483-12.153-12.153-12.153h-28.12c-6.671 0-12.136 5.466-12.136 12.153v185.12zM532.109 512.875c17.959 0 32.958-12.697 36.506-29.603h33.388c-0.402-2.518-0.617-5.081-0.617-7.689 0-2.161 0.142-4.295 0.419-6.394h-32.941c-3.044-17.557-18.332-30.904-36.755-30.904-20.601 0-37.309 16.695-37.309 37.298 0.017 20.601 16.708 37.298 37.309 37.298zM753.887 512.875c20.601 0 37.309-16.695 37.309-37.309 0-20.584-16.695-37.298-37.309-37.298-18.408 0-33.711 13.342-36.738 30.904h-57.65l-0.107 6.394h0.029v7.689h57.961c3.553 16.924 18.547 29.62 36.506 29.62zM649.044 475.583l0.651-37.298c-0.215 0-0.43 0-0.651 0-20.601 0-37.298 16.695-37.298 37.298s16.708 37.298 37.298 37.298v-37.298z" />
<glyph unicode="&#xe92c;" glyph-name="fs-weather-lightning" horiz-adv-x="967" d="M479.7 559.317l-118.371-270.461h99.465l-54.177-217.836 219.388 305.592h-116.96l112.445 181.154zM739.297 424.157l-118.512-270.32h99.465l-54.036-217.836 219.247 305.451h-116.96l112.586 181.295zM667.767 851.364c7.336 1.834 14.673 3.245 22.009 4.233 11.428 1.552 22.856 2.398 34.143 2.398 67.298 0 128.106-27.23 172.266-71.248 44.019-44.16 71.248-104.968 71.248-172.266 0-21.727-2.822-42.89-8.183-63.065-5.643-20.74-13.826-40.492-24.408-58.692l-4.938-8.465h-109.906l23.702 27.794c11.992 13.967 21.586 30.192 28.076 47.828 6.349 16.93 9.735 35.413 9.735 54.6 0 43.454-17.636 82.958-46.135 111.458s-67.862 46.135-111.458 46.135c-13.967 0-27.371-1.693-40.068-5.079-13.262-3.527-25.819-8.606-37.388-15.096l-16.225-9.171-7.336 17.071c-14.955 34.143-39.645 63.065-70.543 83.241-29.91 19.611-65.746 31.039-104.121 31.039-41.056 0-79.008-12.839-109.906-34.848-31.885-22.433-56.575-54.6-69.837-92.27l-3.809-10.581-11.287-0.564c-27.653-1.27-52.484-13.403-70.261-32.168-17.777-18.623-28.781-43.878-28.781-71.672 0-2.963 0.141-5.785 0.282-8.324 0.282-3.104 0.564-5.926 0.988-8.183l2.54-15.943-15.802-3.245c-16.225-3.245-30.475-12.133-40.492-24.549-10.017-11.992-15.943-27.512-15.943-44.442 0-19.47 7.901-37.106 20.599-49.803s30.333-20.599 49.803-20.599h199.213v-85.921h-199.213c-43.172 0-82.253 17.495-110.47 45.712-28.358 28.358-45.853 67.439-45.853 110.611 0 28.076 7.478 54.6 20.74 77.738 12.133 21.163 29.064 39.222 49.521 52.766 5.079 36.823 20.599 70.402 43.737 97.49 23.561 27.512 54.741 48.251 90.577 58.692 23.138 43.595 57.422 79.431 98.337 104.686 42.749 26.383 92.834 41.338 145.318 41.338 45.43 0 89.025-11.146 127.683-31.321 35.554-18.482 67.016-44.865 91.847-77.315z" />
<glyph unicode="&#xf50f;" glyph-name="fs-logo-superior" horiz-adv-x="4875" d="M2633.298 964.465h296.422v-390.788h1289.993v-154.24h-1586.739zM3106.698 963.628v-266.029h1257.527v-278.159h510.221v544.285z" />
<glyph unicode="&#xf510;" glyph-name="fs-logo-inferior" horiz-adv-x="4875" d="M634.275 199.953h1.736c9.591 0 17.942-3.804 25.053-11.411 7.11-7.442 10.666-16.041 10.666-25.798v-135.438c-0.001-16.702-7.773-28.196-23.317-34.479-3.308-1.654-6.698-2.481-10.17-2.481h-0.496c-0.662 0-1.737-0.083-3.225-0.248-0.662 0-1.737 0.083-3.225 0.248l-609.221-0.496c-14.718 0-22.077 7.359-22.077 22.077s7.359 22.077 22.077 22.077l575.238 0.496v121.298h-572.509c-14.718 0-22.077 7.359-22.077 22.077 0.331 7.607 3.142 14.304 8.434 20.092 13.064 10.914 26.707 22.242 40.929 33.983 78.22 62.344 155.116 105.836 230.69 130.476 64.494 21.002 140.233 31.502 227.218 31.503 35.719 0 82.601-1.737 140.647-5.209 16.040-0.993 23.068-9.757 21.085-26.294-1.82-15.71-11.080-22.987-27.782-21.829-46.966 2.976-86.489 4.465-118.57 4.465-79.047 0-147.014-9.84-203.901-29.518-61.848-21.498-127.831-60.029-197.947-115.593h510.744zM892.85 333.131c-1.323 0.165-2.563 0.248-3.721 0.248-10.253 0-19.1-3.638-26.542-10.914-7.276-7.277-10.915-16.124-10.914-26.542v-292.704c0-10.418 3.638-19.266 10.914-26.542 7.441-7.276 16.289-10.914 26.542-10.914s19.017 3.638 26.294 10.914c7.441 7.276 11.162 16.124 11.162 26.542v216.799c1.158 0 2.315 0 3.473 0 10.253 0 19.017 3.638 26.294 10.914 7.441 7.276 11.162 16.041 11.162 26.294v75.16c0 10.253-3.721 19.017-11.162 26.294-7.276 7.276-16.041 10.914-26.294 10.914-10.088 0-18.77-3.556-26.046-10.666s-10.997-15.71-11.162-25.798zM1038.582 307.337c0 10.253 3.555 18.934 10.666 26.046 7.276 7.276 16.041 10.914 26.294 10.914 2.315 0 4.713-0.249 7.194-0.744h210.846c6.614 0 12.899-3.142 18.852-9.426l78.137-83.098 78.385 83.098c5.953 6.284 12.154 9.426 18.604 9.426h208.366c2.314 0.496 4.63 0.744 6.945 0.744 5.787 0 11.079-1.158 15.875-3.473 14.056-6.946 21.084-18.108 21.085-33.487v-329.912c-0.001-10.088-3.639-18.769-10.914-26.046-7.112-7.276-15.794-10.914-26.046-10.914-10.088 0-18.77 3.638-26.046 10.914s-10.915 15.958-10.914 26.046v322.222h-146.104c-0.662-0.993-1.654-2.398-2.977-4.217l-100.214-106.415c-6.119-9.096-14.636-13.643-25.55-13.643-11.411-0.166-20.175 4.382-26.294 13.643l-100.214 106.415c-0.827 0.827-1.819 2.232-2.977 4.217h-149.081v-322.222c0-10.088-3.638-18.769-10.914-26.046-7.111-7.276-15.793-10.914-26.046-10.914s-19.018 3.638-26.294 10.914c-7.111 7.276-10.666 15.958-10.666 26.046v329.912zM2480.999-29.634c-25.81-2.986-53.753-4.479-83.828-4.479-137.154 0-263.642 23.357-379.466 70.070-132.674 53.539-199.011 121.476-199.011 203.811 0 8.532 0.746 17.064 2.24 25.596 2.773 15.784 13.225 23.676 31.355 23.677 7.892 0 15.144-2.987 21.757-8.959 6.826-5.759 10.238-12.585 10.239-20.477 0-1.493-0.107-2.773-0.32-3.839 3.413-28.37 14.718-54.926 33.915-79.669h483.45v130.541h-523.765c-17.491 0-26.236 8.745-26.236 26.236s8.745 26.236 26.236 26.236h562.479c4.905 0 9.385-1.28 13.438-3.839 13.651-6.826 20.476-17.704 20.477-32.635v-162.537c-0.001-23.677-12.052-35.835-36.155-36.475-0.427 0.214-1.068 0.32-1.92 0.32h-460.734c51.832-35.622 121.369-63.351 208.61-83.188 74.229-16.851 146.858-25.276 217.889-25.276 28.155 0 52.365 1.493 72.63 4.479 17.064 0 26.875-6.506 29.436-19.517 0.212-1.706 0.319-3.413 0.32-5.119-0.001-13.865-7.68-22.183-23.037-24.956zM3214.902 313.7h-558.37c-7.442-0.166-13.808 2.397-19.1 7.69-5.292 5.457-7.938 11.906-7.938 19.348 0 17.529 9.013 26.541 27.038 27.038h591.113c1.653 0.165 3.307 0.248 4.961 0.248 1.653 0 3.307-0.083 4.961-0.248 6.283-0.331 11.823-2.564 16.62-6.698 10.583-7.442 15.875-17.612 15.875-30.511l-0.496-163.964c-0.001-17.529-8.435-29.353-25.302-35.472-4.3-1.488-8.269-2.233-11.907-2.232l-560.603-0.248v-127.004c0-10.253-3.721-19.1-11.162-26.542-7.276-7.276-16.124-10.914-26.542-10.914-10.253 0-19.1 3.638-26.542 10.914-7.276 7.442-10.915 16.289-10.914 26.542v186.289c0 10.253 3.638 19.017 10.914 26.294 7.441 7.441 16.289 11.162 26.542 11.162 10.418 0 19.265-3.638 26.542-10.914 7.441-7.276 11.162-16.124 11.162-26.542v-14.883h522.898l0.248 140.647zM3519.528 362.079c7.679 0.426 15.784 0.639 24.317 0.639 115.823 0 228.553-23.144 338.192-69.43 130.327-54.819 195.491-124.142 195.491-207.97 0-7.252-0.534-14.505-1.599-21.757-2.134-15.784-12.586-23.677-31.355-23.677-7.893 0-15.252 2.879-22.077 8.639-6.827 5.972-10.239 12.905-10.239 20.797 0.214 1.493 0.32 2.773 0.32 3.839-3.84 28.796-14.826 55.459-32.956 79.989h-486.65v-130.861h526.325c17.489 0 26.235-8.852 26.236-26.556-0.001-17.491-8.747-26.236-26.236-26.236h-565.359c-4.906 0-9.492 1.28-13.758 3.839-13.652 6.612-20.477 17.597-20.477 32.955v162.857c0 9.598 3.413 18.13 10.239 25.596 7.039 7.465 15.251 11.198 24.636 11.198v0c0.427 0 0.853 0 1.28 0 0.639 0 1.386 0 2.24 0h467.133c-50.767 36.688-119.451 64.737-206.051 84.148-68.897 15.357-133.101 22.716-192.612 22.077-17.278-0.214-27.196 6.292-29.756 19.517-0.214 1.919-0.32 3.732-0.32 5.439 0 13.651 7.679 21.97 23.037 24.956zM4858.516 165.941c-0.166-17.364-8.352-26.046-24.557-26.046h-141.39c3.968-39.027 16.287-67.14 36.959-84.338 21.663-18.356 55.481-27.534 101.454-27.534 6.118 0 12.402 0.165 18.852 0.496 0.997 0.165 1.984 0.248 2.977 0.248 5.953 0 11.079-2.811 15.38-8.434 4.299-5.457 6.449-11.576 6.449-18.356 0-13.064-7.442-21.085-22.325-24.061-9.096-0.165-17.282-0.248-24.557-0.248-57.384 0-100.793 8.847-130.229 26.542-40.019 24.144-66.396 68.711-79.129 133.701h-356.205v-125.763c0-24.144-11.493-36.216-34.48-36.216-23.978 0-35.968 12.072-35.968 36.216v190.258c0 24.144 11.989 36.216 35.968 36.216 22.987 0 34.48-12.072 34.48-36.216v-15.875h525.13l2.233 140.647h-561.595c-17.363 0-26.045 8.764-26.045 26.294s8.682 26.293 26.045 26.294h607.981c16.536 0 24.722-8.103 24.557-24.309l-1.985-189.513z" />
<glyph unicode="&#xf511;" glyph-name="fs-animation-lvl-1" horiz-adv-x="1570" d="M19.505 86.751h104.838c10.806 0 19.505-8.699 19.505-19.505v-107.276c0-10.806-8.699-19.505-19.505-19.505h-104.838c-10.806 0-19.505 8.699-19.505 19.505v107.276c0 10.806 8.699 19.505 19.505 19.505z" />
<glyph unicode="&#xf512;" glyph-name="fs-animation-lvl-2" horiz-adv-x="1570" d="M19.505 86.751h104.838c10.806 0 19.505-8.699 19.505-19.505v-107.276c0-10.806-8.699-19.505-19.505-19.505h-104.838c-10.806 0-19.505 8.699-19.505 19.505v107.276c0 10.806 8.699 19.505 19.505 19.505zM184.947 184.275h90.906c14.665 0 26.471-11.806 26.471-26.471v-190.868c0-14.665-11.806-26.471-26.471-26.471h-90.906c-14.665 0-26.471 11.806-26.471 26.471v190.868c0 14.665 11.806 26.471 26.471 26.471z" />
<glyph unicode="&#xf513;" glyph-name="fs-animation-lvl-3" horiz-adv-x="1570" d="M19.505 86.751h104.838c10.806 0 19.505-8.699 19.505-19.505v-107.276c0-10.806-8.699-19.505-19.505-19.505h-104.838c-10.806 0-19.505 8.699-19.505 19.505v107.276c0 10.806 8.699 19.505 19.505 19.505zM184.947 184.275h90.906c14.665 0 26.471-11.806 26.471-26.471v-190.868c0-14.665-11.806-26.471-26.471-26.471h-90.906c-14.665 0-26.471 11.806-26.471 26.471v190.868c0 14.665 11.806 26.471 26.471 26.471zM346.653 281.798h84.447c16.454 0 29.7-13.246 29.7-29.7v-281.933c0-16.454-13.246-29.7-29.7-29.7h-84.447c-16.454 0-29.7 13.246-29.7 29.7v281.933c0 16.454 13.246 29.7 29.7 29.7z" />
<glyph unicode="&#xf514;" glyph-name="fs-animation-lvl-4" horiz-adv-x="1570" d="M19.505 86.751h104.838c10.806 0 19.505-8.699 19.505-19.505v-107.276c0-10.806-8.699-19.505-19.505-19.505h-104.838c-10.806 0-19.505 8.699-19.505 19.505v107.276c0 10.806 8.699 19.505 19.505 19.505zM184.947 184.275h90.906c14.665 0 26.471-11.806 26.471-26.471v-190.868c0-14.665-11.806-26.471-26.471-26.471h-90.906c-14.665 0-26.471 11.806-26.471 26.471v190.868c0 14.665 11.806 26.471 26.471 26.471zM346.653 281.798h84.447c16.454 0 29.7-13.246 29.7-29.7v-281.933c0-16.454-13.246-29.7-29.7-29.7h-84.447c-16.454 0-29.7 13.246-29.7 29.7v281.933c0 16.454 13.246 29.7 29.7 29.7zM509.597 379.322h75.511c18.929 0 34.168-15.239 34.168-34.168v-370.52c0-18.929-15.239-34.168-34.168-34.168h-75.511c-18.929 0-34.168 15.239-34.168 34.168v370.52c0 18.929 15.239 34.168 34.168 34.168z" />
<glyph unicode="&#xf515;" glyph-name="fs-animation-lvl-5" horiz-adv-x="1570" d="M19.505 86.751h104.838c10.806 0 19.505-8.699 19.505-19.505v-107.276c0-10.806-8.699-19.505-19.505-19.505h-104.838c-10.806 0-19.505 8.699-19.505 19.505v107.276c0 10.806 8.699 19.505 19.505 19.505zM184.947 184.275h90.906c14.665 0 26.471-11.806 26.471-26.471v-190.868c0-14.665-11.806-26.471-26.471-26.471h-90.906c-14.665 0-26.471 11.806-26.471 26.471v190.868c0 14.665 11.806 26.471 26.471 26.471zM346.653 281.798h84.447c16.454 0 29.7-13.246 29.7-29.7v-281.933c0-16.454-13.246-29.7-29.7-29.7h-84.447c-16.454 0-29.7 13.246-29.7 29.7v281.933c0 16.454 13.246 29.7 29.7 29.7zM509.597 379.322h75.511c18.929 0 34.168-15.239 34.168-34.168v-370.52c0-18.929-15.239-34.168-34.168-34.168h-75.511c-18.929 0-34.168 15.239-34.168 34.168v370.52c0 18.929 15.239 34.168 34.168 34.168zM665.477 476.846h80.704c17.491 0 31.572-14.081 31.572-31.572v-473.237c0-17.491-14.081-31.572-31.572-31.572h-80.704c-17.491 0-31.572 14.081-31.572 31.572v473.237c0 17.491 14.081 31.572 31.572 31.572z" />
<glyph unicode="&#xf516;" glyph-name="fs-animation-lvl-6" horiz-adv-x="1570" d="M19.505 86.751h104.838c10.806 0 19.505-8.699 19.505-19.505v-107.276c0-10.806-8.699-19.505-19.505-19.505h-104.838c-10.806 0-19.505 8.699-19.505 19.505v107.276c0 10.806 8.699 19.505 19.505 19.505zM184.947 184.275h90.906c14.665 0 26.471-11.806 26.471-26.471v-190.868c0-14.665-11.806-26.471-26.471-26.471h-90.906c-14.665 0-26.471 11.806-26.471 26.471v190.868c0 14.665 11.806 26.471 26.471 26.471zM346.653 281.798h84.447c16.454 0 29.7-13.246 29.7-29.7v-281.933c0-16.454-13.246-29.7-29.7-29.7h-84.447c-16.454 0-29.7 13.246-29.7 29.7v281.933c0 16.454 13.246 29.7 29.7 29.7zM509.597 379.322h75.511c18.929 0 34.168-15.239 34.168-34.168v-370.52c0-18.929-15.239-34.168-34.168-34.168h-75.511c-18.929 0-34.168 15.239-34.168 34.168v370.52c0 18.929 15.239 34.168 34.168 34.168zM665.477 476.846h80.704c17.491 0 31.572-14.081 31.572-31.572v-473.237c0-17.491-14.081-31.572-31.572-31.572h-80.704c-17.491 0-31.572 14.081-31.572 31.572v473.237c0 17.491 14.081 31.572 31.572 31.572zM823.017 574.37h82.575c16.972 0 30.636-13.664 30.636-30.636v-572.633c0-16.972-13.664-30.636-30.636-30.636h-82.575c-16.972 0-30.636 13.664-30.636 30.636v572.633c0 16.972 13.664 30.636 30.636 30.636z" />
<glyph unicode="&#xf517;" glyph-name="fs-animation-lvl-7" horiz-adv-x="1570" d="M19.505 86.751h104.838c10.806 0 19.505-8.699 19.505-19.505v-107.276c0-10.806-8.699-19.505-19.505-19.505h-104.838c-10.806 0-19.505 8.699-19.505 19.505v107.276c0 10.806 8.699 19.505 19.505 19.505zM184.947 184.275h90.906c14.665 0 26.471-11.806 26.471-26.471v-190.868c0-14.665-11.806-26.471-26.471-26.471h-90.906c-14.665 0-26.471 11.806-26.471 26.471v190.868c0 14.665 11.806 26.471 26.471 26.471zM346.653 281.798h84.447c16.454 0 29.7-13.246 29.7-29.7v-281.933c0-16.454-13.246-29.7-29.7-29.7h-84.447c-16.454 0-29.7 13.246-29.7 29.7v281.933c0 16.454 13.246 29.7 29.7 29.7zM509.597 379.322h75.511c18.929 0 34.168-15.239 34.168-34.168v-370.52c0-18.929-15.239-34.168-34.168-34.168h-75.511c-18.929 0-34.168 15.239-34.168 34.168v370.52c0 18.929 15.239 34.168 34.168 34.168zM665.477 476.846h80.704c17.491 0 31.572-14.081 31.572-31.572v-473.237c0-17.491-14.081-31.572-31.572-31.572h-80.704c-17.491 0-31.572 14.081-31.572 31.572v473.237c0 17.491 14.081 31.572 31.572 31.572zM823.017 574.37h82.575c16.972 0 30.636-13.664 30.636-30.636v-572.633c0-16.972-13.664-30.636-30.636-30.636h-82.575c-16.972 0-30.636 13.664-30.636 30.636v572.633c0 16.972 13.664 30.636 30.636 30.636zM981.167 671.894h83.227c16.792 0 30.31-13.518 30.31-30.31v-670.808c0-16.792-13.518-30.31-30.31-30.31h-83.227c-16.792 0-30.31 13.518-30.31 30.31v670.808c0 16.792 13.518 30.31 30.31 30.31z" />
<glyph unicode="&#xf518;" glyph-name="fs-animation-lvl-8" horiz-adv-x="1570" d="M19.505 86.751h104.838c10.806 0 19.505-8.699 19.505-19.505v-107.276c0-10.806-8.699-19.505-19.505-19.505h-104.838c-10.806 0-19.505 8.699-19.505 19.505v107.276c0 10.806 8.699 19.505 19.505 19.505zM184.947 184.275h90.906c14.665 0 26.471-11.806 26.471-26.471v-190.868c0-14.665-11.806-26.471-26.471-26.471h-90.906c-14.665 0-26.471 11.806-26.471 26.471v190.868c0 14.665 11.806 26.471 26.471 26.471zM346.653 281.798h84.447c16.454 0 29.7-13.246 29.7-29.7v-281.933c0-16.454-13.246-29.7-29.7-29.7h-84.447c-16.454 0-29.7 13.246-29.7 29.7v281.933c0 16.454 13.246 29.7 29.7 29.7zM509.597 379.322h75.511c18.929 0 34.168-15.239 34.168-34.168v-370.52c0-18.929-15.239-34.168-34.168-34.168h-75.511c-18.929 0-34.168 15.239-34.168 34.168v370.52c0 18.929 15.239 34.168 34.168 34.168zM665.477 476.846h80.704c17.491 0 31.572-14.081 31.572-31.572v-473.237c0-17.491-14.081-31.572-31.572-31.572h-80.704c-17.491 0-31.572 14.081-31.572 31.572v473.237c0 17.491 14.081 31.572 31.572 31.572zM823.017 574.37h82.575c16.972 0 30.636-13.664 30.636-30.636v-572.633c0-16.972-13.664-30.636-30.636-30.636h-82.575c-16.972 0-30.636 13.664-30.636 30.636v572.633c0 16.972 13.664 30.636 30.636 30.636zM981.167 671.894h83.227c16.792 0 30.31-13.518 30.31-30.31v-670.808c0-16.792-13.518-30.31-30.31-30.31h-83.227c-16.792 0-30.31 13.518-30.31 30.31v670.808c0 16.792 13.518 30.31 30.31 30.31zM1138.058 769.417h86.398c15.914 0 28.725-12.811 28.725-28.725v-771.502c0-15.914-12.811-28.725-28.725-28.725h-86.398c-15.914 0-28.725 12.811-28.725 28.725v771.502c0 15.914 12.811 28.725 28.725 28.725z" />
<glyph unicode="&#xf519;" glyph-name="fs-animation-lvl-9" horiz-adv-x="1570" d="M19.505 86.751h104.838c10.806 0 19.505-8.699 19.505-19.505v-107.276c0-10.806-8.699-19.505-19.505-19.505h-104.838c-10.806 0-19.505 8.699-19.505 19.505v107.276c0 10.806 8.699 19.505 19.505 19.505zM184.947 184.275h90.906c14.665 0 26.471-11.806 26.471-26.471v-190.868c0-14.665-11.806-26.471-26.471-26.471h-90.906c-14.665 0-26.471 11.806-26.471 26.471v190.868c0 14.665 11.806 26.471 26.471 26.471zM346.653 281.798h84.447c16.454 0 29.7-13.246 29.7-29.7v-281.933c0-16.454-13.246-29.7-29.7-29.7h-84.447c-16.454 0-29.7 13.246-29.7 29.7v281.933c0 16.454 13.246 29.7 29.7 29.7zM509.597 379.322h75.511c18.929 0 34.168-15.239 34.168-34.168v-370.52c0-18.929-15.239-34.168-34.168-34.168h-75.511c-18.929 0-34.168 15.239-34.168 34.168v370.52c0 18.929 15.239 34.168 34.168 34.168zM665.477 476.846h80.704c17.491 0 31.572-14.081 31.572-31.572v-473.237c0-17.491-14.081-31.572-31.572-31.572h-80.704c-17.491 0-31.572 14.081-31.572 31.572v473.237c0 17.491 14.081 31.572 31.572 31.572zM823.017 574.37h82.575c16.972 0 30.636-13.664 30.636-30.636v-572.633c0-16.972-13.664-30.636-30.636-30.636h-82.575c-16.972 0-30.636 13.664-30.636 30.636v572.633c0 16.972 13.664 30.636 30.636 30.636zM981.167 671.894h83.227c16.792 0 30.31-13.518 30.31-30.31v-670.808c0-16.792-13.518-30.31-30.31-30.31h-83.227c-16.792 0-30.31 13.518-30.31 30.31v670.808c0 16.792 13.518 30.31 30.31 30.31zM1138.058 769.417h86.398c15.914 0 28.725-12.811 28.725-28.725v-771.502c0-15.914-12.811-28.725-28.725-28.725h-86.398c-15.914 0-28.725 12.811-28.725 28.725v771.502c0 15.914 12.811 28.725 28.725 28.725zM1295.829 866.941h87.808c15.523 0 28.020-12.497 28.020-28.020v-870.437c0-15.523-12.497-28.020-28.020-28.020h-87.808c-15.523 0-28.020 12.497-28.020 28.020v870.437c0 15.523 12.497 28.020 28.020 28.020z" />
<glyph unicode="&#xf51a;" glyph-name="fs-animation-lvl-10" horiz-adv-x="1570" d="M19.505 86.751h104.838c10.806 0 19.505-8.699 19.505-19.505v-107.276c0-10.806-8.699-19.505-19.505-19.505h-104.838c-10.806 0-19.505 8.699-19.505 19.505v107.276c0 10.806 8.699 19.505 19.505 19.505zM184.947 184.275h90.906c14.665 0 26.471-11.806 26.471-26.471v-190.868c0-14.665-11.806-26.471-26.471-26.471h-90.906c-14.665 0-26.471 11.806-26.471 26.471v190.868c0 14.665 11.806 26.471 26.471 26.471zM346.653 281.798h84.447c16.454 0 29.7-13.246 29.7-29.7v-281.933c0-16.454-13.246-29.7-29.7-29.7h-84.447c-16.454 0-29.7 13.246-29.7 29.7v281.933c0 16.454 13.246 29.7 29.7 29.7zM509.597 379.322h75.511c18.929 0 34.168-15.239 34.168-34.168v-370.52c0-18.929-15.239-34.168-34.168-34.168h-75.511c-18.929 0-34.168 15.239-34.168 34.168v370.52c0 18.929 15.239 34.168 34.168 34.168zM665.477 476.846h80.704c17.491 0 31.572-14.081 31.572-31.572v-473.237c0-17.491-14.081-31.572-31.572-31.572h-80.704c-17.491 0-31.572 14.081-31.572 31.572v473.237c0 17.491 14.081 31.572 31.572 31.572zM823.017 574.37h82.575c16.972 0 30.636-13.664 30.636-30.636v-572.633c0-16.972-13.664-30.636-30.636-30.636h-82.575c-16.972 0-30.636 13.664-30.636 30.636v572.633c0 16.972 13.664 30.636 30.636 30.636zM981.167 671.894h83.227c16.792 0 30.31-13.518 30.31-30.31v-670.808c0-16.792-13.518-30.31-30.31-30.31h-83.227c-16.792 0-30.31 13.518-30.31 30.31v670.808c0 16.792 13.518 30.31 30.31 30.31zM1138.058 769.417h86.398c15.914 0 28.725-12.811 28.725-28.725v-771.502c0-15.914-12.811-28.725-28.725-28.725h-86.398c-15.914 0-28.725 12.811-28.725 28.725v771.502c0 15.914 12.811 28.725 28.725 28.725zM1295.829 866.941h87.808c15.523 0 28.020-12.497 28.020-28.020v-870.437c0-15.523-12.497-28.020-28.020-28.020h-87.808c-15.523 0-28.020 12.497-28.020 28.020v870.437c0 15.523 12.497 28.020 28.020 28.020zM1453.204 964.465h90.010c14.913 0 26.919-12.006 26.919-26.919v-970.163c0-14.913-12.006-26.919-26.919-26.919h-90.010c-14.913 0-26.919 12.006-26.919 26.919v970.163c0 14.913 12.006 26.919 26.919 26.919z" />
<glyph unicode="&#xf51b;" glyph-name="fs-animation-lvl-11" horiz-adv-x="1570" d="M19.505 86.751h104.838c10.806 0 19.505-8.699 19.505-19.505v-107.276c0-10.806-8.699-19.505-19.505-19.505h-104.838c-10.806 0-19.505 8.699-19.505 19.505v107.276c0 10.806 8.699 19.505 19.505 19.505zM184.947 184.275h90.906c14.665 0 26.471-11.806 26.471-26.471v-190.868c0-14.665-11.806-26.471-26.471-26.471h-90.906c-14.665 0-26.471 11.806-26.471 26.471v190.868c0 14.665 11.806 26.471 26.471 26.471zM346.653 281.798h84.447c16.454 0 29.7-13.246 29.7-29.7v-281.933c0-16.454-13.246-29.7-29.7-29.7h-84.447c-16.454 0-29.7 13.246-29.7 29.7v281.933c0 16.454 13.246 29.7 29.7 29.7zM509.597 379.322h75.511c18.929 0 34.168-15.239 34.168-34.168v-370.52c0-18.929-15.239-34.168-34.168-34.168h-75.511c-18.929 0-34.168 15.239-34.168 34.168v370.52c0 18.929 15.239 34.168 34.168 34.168zM665.477 476.846h80.704c17.491 0 31.572-14.081 31.572-31.572v-473.237c0-17.491-14.081-31.572-31.572-31.572h-80.704c-17.491 0-31.572 14.081-31.572 31.572v473.237c0 17.491 14.081 31.572 31.572 31.572zM823.017 574.37h82.575c16.972 0 30.636-13.664 30.636-30.636v-572.633c0-16.972-13.664-30.636-30.636-30.636h-82.575c-16.972 0-30.636 13.664-30.636 30.636v572.633c0 16.972 13.664 30.636 30.636 30.636zM981.167 671.894h83.227c16.792 0 30.31-13.518 30.31-30.31v-670.808c0-16.792-13.518-30.31-30.31-30.31h-83.227c-16.792 0-30.31 13.518-30.31 30.31v670.808c0 16.792 13.518 30.31 30.31 30.31zM1138.058 769.417h86.398c15.914 0 28.725-12.811 28.725-28.725v-771.502c0-15.914-12.811-28.725-28.725-28.725h-86.398c-15.914 0-28.725 12.811-28.725 28.725v771.502c0 15.914 12.811 28.725 28.725 28.725zM1295.829 866.941h87.808c15.523 0 28.020-12.497 28.020-28.020v-870.437c0-15.523-12.497-28.020-28.020-28.020h-87.808c-15.523 0-28.020 12.497-28.020 28.020v870.437c0 15.523 12.497 28.020 28.020 28.020zM1453.204 964.465h90.010c14.913 0 26.919-12.006 26.919-26.919v-970.163c0-14.913-12.006-26.919-26.919-26.919h-90.010c-14.913 0-26.919 12.006-26.919 26.919v970.163c0 14.913 12.006 26.919 26.919 26.919z" />
</font>
</defs>
</svg>
